<?xml version="1.0" standalone="no"?>
<!DOCTYPE svg PUBLIC "-//W3C//DTD SVG 20010904//EN"
 "http://www.w3.org/TR/2001/REC-SVG-20010904/DTD/svg10.dtd">
<svg version="1.0" xmlns="http://www.w3.org/2000/svg"
 width="500.000000pt" height="500.000000pt" viewBox="0 0 500.000000 500.000000"
 preserveAspectRatio="xMidYMid meet">
<metadata>
Created by potrace 1.11, written by Peter Selinger 2001-2013
</metadata>
<g transform="translate(0.000000,500.000000) scale(0.100000,-0.100000)"
fill="#000000" stroke="none">
<path d="M2843 4369 c-57 -28 -99 -78 -118 -141 -8 -28 -15 -57 -15 -63 0 -35
35 -120 63 -152 83 -94 241 -98 330 -7 48 48 61 83 61 159 0 76 -13 111 -60
159 -69 68 -177 87 -261 45z"/>
<path d="M1648 4235 c-293 -56 -533 -241 -658 -508 -89 -189 -104 -364 -61
-681 27 -194 24 -210 -36 -224 -146 -34 -186 -47 -250 -80 -135 -69 -239 -175
-303 -307 -51 -104 -70 -187 -70 -306 0 -289 167 -538 434 -645 78 -31 89 -43
110 -119 42 -150 155 -330 274 -437 196 -175 470 -266 721 -239 294 32 527
168 695 405 80 113 144 174 227 215 115 57 234 65 374 23 174 -52 407 -67 581
-37 459 80 843 414 987 856 46 140 60 255 54 428 -4 120 -11 178 -30 251 -63
242 -169 431 -337 598 -357 356 -887 464 -1353 275 -186 -75 -314 -37 -427
127 -130 191 -335 336 -548 391 -104 26 -284 33 -384 14z m2164 -649 c223 -43
348 -149 348 -295 0 -70 -25 -126 -79 -180 l-41 -41 -48 30 c-93 57 -177 82
-293 88 -117 5 -185 -9 -272 -56 -145 -78 -226 -271 -213 -507 11 -216 93
-358 251 -437 77 -39 147 -51 275 -46 112 3 118 5 220 51 l104 47 27 -26 c66
-63 96 -218 56 -291 -78 -146 -318 -221 -616 -193 -269 25 -460 107 -607 262
-141 147 -211 316 -234 563 -34 365 92 688 341 872 104 77 256 141 386 163 81
13 315 11 395 -4z m-1947 -32 c83 -22 150 -60 180 -103 30 -45 61 -134 170
-496 160 -534 317 -1109 307 -1125 -28 -46 -141 -80 -263 -80 -200 0 -247 46
-309 298 l-22 92 -266 -2 -265 -3 -46 -177 -45 -178 -52 -15 c-72 -21 -237
-20 -303 2 -96 31 -151 115 -136 208 29 185 469 1499 513 1531 25 18 119 46
207 60 96 16 246 11 330 -12z"/>
<path d="M1667 3113 c-10 -18 -166 -500 -172 -535 l-7 -38 176 0 c97 0 176 4
176 8 0 19 -152 558 -160 565 -4 5 -10 5 -13 0z"/>
<path d="M472 3140 c-75 -17 -123 -102 -102 -179 39 -148 263 -126 277 26 10
104 -72 176 -175 153z"/>
<path d="M2998 1056 c-65 -18 -111 -56 -142 -118 -57 -115 -15 -247 97 -303
127 -63 280 -2 323 128 58 175 -100 342 -278 293z"/>
</g>
</svg>
